<svg width="170" height="101" viewBox="0 0 170 101" fill="none" xmlns="http://www.w3.org/2000/svg">
<rect width="170" height="101" rx="6" fill="#000924"/>
<path d="M132 82.5C132 82.2239 132.224 82 132.5 82H153.5C153.776 82 154 82.2239 154 82.5C154 82.7761 153.776 83 153.5 83H132.5C132.224 83 132 82.7761 132 82.5Z" fill="#9E9E9E"/>
<path d="M104.093 79.4912C104.093 79.2178 103.93 79.0811 103.604 79.0811C102.983 79.0811 102.418 79.3691 101.91 79.9453C101.611 80.2839 101.401 80.6501 101.28 81.0439C101.222 81.236 101.192 81.4053 101.192 81.5518C101.192 81.6982 101.209 81.8154 101.241 81.9033C101.277 81.988 101.321 82.0579 101.373 82.1133C101.484 82.2305 101.612 82.276 101.759 82.25C101.918 82.1849 102.058 82.1523 102.179 82.1523C102.302 82.1523 102.4 82.1686 102.472 82.2012C102.547 82.2305 102.607 82.2679 102.652 82.3135C102.747 82.4046 102.794 82.4925 102.794 82.5771C102.794 82.7432 102.739 82.8294 102.628 82.8359C102.459 82.8522 102.281 82.8994 102.096 82.9775C101.91 83.0557 101.723 83.1582 101.534 83.2852C101.345 83.4089 101.178 83.5488 101.031 83.7051C100.696 84.0632 100.528 84.4229 100.528 84.7842C100.528 84.9567 100.569 85.0869 100.65 85.1748C100.787 85.3278 100.95 85.4043 101.139 85.4043C101.327 85.4043 101.511 85.3685 101.69 85.2969C101.873 85.222 102.037 85.1325 102.184 85.0283C102.405 84.8688 102.62 84.6654 102.828 84.418C102.932 84.2943 103.023 84.2324 103.102 84.2324C103.18 84.2324 103.238 84.2796 103.277 84.374C103.32 84.4652 103.341 84.5628 103.341 84.667C103.341 84.8818 103.3 85.0413 103.219 85.1455C103.137 85.2464 103.035 85.349 102.911 85.4531C102.791 85.554 102.646 85.6484 102.477 85.7363C102.07 85.9447 101.633 86.0488 101.168 86.0488C100.383 86.0488 99.8464 85.7917 99.5566 85.2773C99.4525 85.0853 99.4004 84.8883 99.4004 84.6865C99.4004 84.4847 99.4297 84.2975 99.4883 84.125C99.5501 83.9525 99.6283 83.793 99.7227 83.6465C99.8171 83.4967 99.9229 83.3633 100.04 83.2461C100.157 83.1257 100.273 83.0215 100.387 82.9336C100.611 82.7578 100.797 82.6585 100.943 82.6357C100.576 82.4893 100.328 82.2044 100.201 81.7812C100.162 81.6445 100.143 81.4785 100.143 81.2832C100.143 81.0879 100.18 80.873 100.255 80.6387C100.33 80.401 100.436 80.1748 100.572 79.96C100.709 79.7419 100.872 79.5384 101.061 79.3496C101.249 79.1608 101.458 78.9964 101.686 78.8564C102.177 78.557 102.695 78.4072 103.238 78.4072C103.808 78.4072 104.233 78.5488 104.513 78.832C104.737 79.0599 104.85 79.3512 104.85 79.7061C104.85 80.1097 104.68 80.5182 104.342 80.9316C104.137 81.179 103.951 81.3467 103.785 81.4346C103.622 81.5225 103.494 81.5713 103.399 81.5811C103.308 81.5876 103.222 81.5762 103.141 81.5469C103.062 81.5143 102.994 81.472 102.936 81.4199C102.802 81.2995 102.735 81.1904 102.735 81.0928C102.735 80.9723 102.778 80.8796 102.862 80.8145L103.302 80.502C103.829 80.1146 104.093 79.7777 104.093 79.4912Z" fill="#9E9E9E"/>
<path d="M104.469 85.5264C104.42 85.4189 104.396 85.292 104.396 85.1455C104.396 84.999 104.418 84.8379 104.464 84.6621C104.509 84.4831 104.568 84.3008 104.64 84.1152C104.711 83.9297 104.791 83.7409 104.879 83.5488L105.128 82.9824C105.45 82.237 105.569 81.7975 105.484 81.6641C105.445 81.6022 105.37 81.5404 105.26 81.4785C105.224 81.4557 105.206 81.4167 105.206 81.3613C105.206 81.3027 105.229 81.2474 105.274 81.1953C105.323 81.1432 105.387 81.0977 105.465 81.0586C105.621 80.9837 105.779 80.9463 105.938 80.9463C106.098 80.9463 106.218 80.9642 106.3 81C106.384 81.0326 106.454 81.0749 106.51 81.127C106.614 81.2344 106.666 81.3646 106.666 81.5176C106.666 81.6706 106.637 81.8431 106.578 82.0352C106.52 82.2272 106.446 82.429 106.358 82.6406C106.271 82.8522 106.174 83.0687 106.07 83.29L105.782 83.9297C105.577 84.4017 105.475 84.7142 105.475 84.8672C105.475 85.1667 105.58 85.3164 105.792 85.3164C106.336 85.3164 106.845 84.9941 107.32 84.3496C107.597 83.9753 107.796 83.5684 107.916 83.1289C107.971 82.9206 107.999 82.7318 107.999 82.5625C107.999 82.39 107.993 82.2467 107.979 82.1328C107.97 82.0189 107.952 81.918 107.926 81.8301C107.883 81.6738 107.812 81.5387 107.711 81.4248C107.643 81.3402 107.674 81.2409 107.804 81.127C107.947 81.0065 108.15 80.9463 108.414 80.9463C108.577 80.9463 108.72 81.0228 108.844 81.1758C109 81.3581 109.078 81.6201 109.078 81.9619C109.078 82.3005 109.028 82.6341 108.927 82.9629C108.826 83.2884 108.688 83.6025 108.512 83.9053C108.336 84.2048 108.128 84.4847 107.887 84.7451C107.649 85.0055 107.392 85.2318 107.115 85.4238C106.523 85.8405 105.93 86.0488 105.338 86.0488C104.911 86.0488 104.622 85.8747 104.469 85.5264Z" fill="#9E9E9E"/>
<path d="M109.605 84.291C109.618 84.0078 109.666 83.7376 109.747 83.4805C109.828 83.2201 109.938 82.9694 110.074 82.7285C110.211 82.4844 110.37 82.2549 110.553 82.04C110.738 81.8219 110.938 81.6315 111.153 81.4688C111.619 81.1204 112.089 80.9463 112.564 80.9463C113.121 80.9463 113.492 81.1758 113.678 81.6348C113.743 81.791 113.774 81.9766 113.771 82.1914C113.767 82.403 113.727 82.5999 113.648 82.7822C113.57 82.9613 113.461 83.1257 113.321 83.2754C113.185 83.4219 113.02 83.5537 112.828 83.6709C112.639 83.7881 112.433 83.8874 112.208 83.9688C111.746 84.1315 111.251 84.2161 110.724 84.2227C110.711 84.2682 110.702 84.3366 110.699 84.4277C110.696 84.5189 110.706 84.6214 110.729 84.7354C110.751 84.846 110.79 84.9453 110.846 85.0332C110.963 85.2285 111.132 85.3262 111.354 85.3262C111.731 85.3262 112.099 85.2155 112.457 84.9941C112.584 84.9193 112.687 84.8428 112.765 84.7646C112.846 84.6833 112.916 84.6426 112.975 84.6426C113.033 84.6426 113.084 84.6784 113.126 84.75C113.172 84.8184 113.194 84.8965 113.194 84.9844C113.194 85.1569 113.146 85.3066 113.048 85.4336C112.638 85.8438 112.027 86.0488 111.217 86.0488C110.738 86.0488 110.354 85.9056 110.064 85.6191C109.739 85.2936 109.586 84.8509 109.605 84.291ZM112.457 81.5957C112.115 81.5957 111.786 81.8301 111.471 82.2988C111.204 82.7025 110.989 83.181 110.826 83.7344C111.37 83.679 111.842 83.4642 112.242 83.0898C112.61 82.7383 112.794 82.4014 112.794 82.0791C112.794 81.7568 112.682 81.5957 112.457 81.5957Z" fill="#9E9E9E"/>
<path d="M117.794 81.8691C117.693 81.8691 117.55 81.9668 117.364 82.1621C117.179 82.3542 117.018 82.5299 116.881 82.6895L116.466 83.1875L115.665 84.208C115.476 84.5661 115.328 84.8639 115.221 85.1016L114.957 85.668C114.889 85.8079 114.828 85.9072 114.776 85.9658C114.728 86.0212 114.659 86.0488 114.571 86.0488C114.487 86.0488 114.404 86.0326 114.322 86C114.244 85.9707 114.176 85.9316 114.117 85.8828C113.993 85.7786 113.932 85.6647 113.932 85.541C113.932 85.4922 113.967 85.3962 114.039 85.2529L114.225 84.8574C114.283 84.7402 114.352 84.5905 114.43 84.4082L114.703 83.7393C115.087 82.779 115.279 82.1589 115.279 81.8789C115.279 81.7292 115.23 81.6185 115.133 81.5469L115.035 81.4785C115.003 81.4557 114.986 81.4167 114.986 81.3613C114.986 81.3027 115.007 81.2474 115.05 81.1953C115.095 81.1432 115.154 81.0977 115.226 81.0586C115.372 80.9837 115.519 80.9463 115.665 80.9463C115.815 80.9463 115.93 80.9626 116.012 80.9951C116.093 81.0277 116.161 81.0716 116.217 81.127C116.337 81.2409 116.397 81.3597 116.397 81.4834C116.397 81.6071 116.381 81.7324 116.349 81.8594C116.319 81.9831 116.28 82.11 116.231 82.2402C116.186 82.3672 116.137 82.4925 116.085 82.6162C116.033 82.7399 115.986 82.8473 115.943 82.9385L115.846 83.1484C115.82 83.2005 115.813 83.2168 115.826 83.1973C116.188 82.696 116.425 82.3737 116.539 82.2305L116.881 81.8203C117.132 81.5273 117.328 81.3337 117.472 81.2393C117.761 81.0439 117.989 80.9463 118.155 80.9463C118.321 80.9463 118.461 80.9674 118.575 81.0098C118.689 81.0521 118.788 81.1123 118.873 81.1904C119.052 81.3564 119.142 81.568 119.142 81.8252C119.142 82.0824 119.083 82.3509 118.966 82.6309C118.849 82.9108 118.746 83.1387 118.658 83.3145C118.574 83.487 118.492 83.6628 118.414 83.8418C118.17 84.3854 118.048 84.7809 118.048 85.0283C118.048 85.139 118.136 85.1943 118.312 85.1943C118.448 85.1943 118.572 85.165 118.683 85.1064C118.797 85.0479 118.87 85.0186 118.902 85.0186C118.971 85.0186 119.005 85.0527 119.005 85.1211C119.005 85.4108 118.857 85.6533 118.561 85.8486C118.362 85.9821 118.18 86.0488 118.014 86.0488C117.848 86.0488 117.709 86.0309 117.599 85.9951C117.491 85.9593 117.395 85.9023 117.311 85.8242C117.118 85.6517 117.022 85.4108 117.022 85.1016C117.022 84.724 117.141 84.252 117.379 83.6855C117.551 83.2982 117.674 83.0329 117.745 82.8896L117.911 82.543C118.012 82.3346 118.062 82.1702 118.062 82.0498C118.062 81.9294 117.973 81.8691 117.794 81.8691Z" fill="#9E9E9E"/>
<path d="M122.73 84.7207C122.825 84.7207 122.872 84.7842 122.872 84.9111C122.872 85.0186 122.84 85.1227 122.774 85.2236C122.687 85.4124 122.511 85.5915 122.247 85.7607C121.948 85.9528 121.646 86.0488 121.344 86.0488C120.82 86.0488 120.488 85.8145 120.348 85.3457C120.182 84.7891 120.431 83.609 121.095 81.8057C120.72 81.7731 120.517 81.708 120.484 81.6104C120.475 81.5811 120.47 81.5501 120.47 81.5176C120.47 81.4818 120.484 81.4411 120.514 81.3955C120.546 81.3499 120.587 81.306 120.636 81.2637C120.75 81.1693 120.865 81.1221 120.982 81.1221H121.368C121.72 80.2985 121.97 79.8298 122.12 79.7158C122.192 79.6637 122.271 79.6377 122.359 79.6377C122.447 79.6377 122.521 79.6491 122.579 79.6719C122.638 79.6947 122.69 79.7272 122.735 79.7695C122.84 79.8672 122.892 79.9762 122.892 80.0967C122.892 80.1618 122.872 80.2367 122.833 80.3213L122.472 81.1074H122.589C122.791 81.1074 122.953 81.1058 123.077 81.1025C123.077 81.1025 123.17 81.1009 123.355 81.0977C123.417 81.0944 123.494 81.0928 123.585 81.0928C123.679 81.0928 123.727 81.127 123.727 81.1953C123.727 81.625 123.219 81.8398 122.203 81.8398H122.164L121.832 82.6992C121.458 83.7148 121.271 84.4261 121.271 84.833C121.271 84.9469 121.297 85.0365 121.349 85.1016C121.401 85.1634 121.498 85.1943 121.642 85.1943C121.785 85.1943 121.915 85.1699 122.032 85.1211C122.149 85.0723 122.252 85.0186 122.34 84.96C122.428 84.8981 122.503 84.8428 122.564 84.7939C122.63 84.7451 122.685 84.7207 122.73 84.7207Z" fill="#9E9E9E"/>
<path d="M123.248 85.1406C123.248 85.0397 123.269 84.9469 123.312 84.8623C123.357 84.7744 123.412 84.7012 123.478 84.6426C123.614 84.5156 123.757 84.4521 123.907 84.4521C124.037 84.4521 124.103 84.5189 124.103 84.6523C124.103 84.9909 124.215 85.2269 124.439 85.3604C124.521 85.4092 124.605 85.4336 124.693 85.4336C124.781 85.4336 124.856 85.4238 124.918 85.4043C124.98 85.3848 125.037 85.3538 125.089 85.3115C125.206 85.2171 125.265 85.1048 125.265 84.9746C125.265 84.8444 125.235 84.7256 125.177 84.6182C125.118 84.5075 125.045 84.3919 124.957 84.2715L124.679 83.8809C124.288 83.36 124.093 82.8799 124.093 82.4404C124.093 82.0758 124.247 81.7454 124.557 81.4492C124.908 81.1139 125.359 80.9463 125.909 80.9463C126.391 80.9463 126.767 81.0651 127.037 81.3027C127.258 81.4948 127.369 81.7145 127.369 81.9619C127.369 82.2191 127.271 82.4242 127.076 82.5771C126.9 82.7139 126.725 82.7643 126.549 82.7285C126.471 82.7122 126.41 82.6732 126.368 82.6113C126.326 82.5462 126.318 82.473 126.344 82.3916C126.37 82.3102 126.383 82.2256 126.383 82.1377C126.383 82.0498 126.367 81.9684 126.334 81.8936C126.301 81.8187 126.257 81.7552 126.202 81.7031C126.088 81.5957 125.968 81.542 125.841 81.542C125.717 81.542 125.615 81.5566 125.533 81.5859C125.452 81.612 125.38 81.651 125.318 81.7031C125.191 81.8203 125.128 81.9652 125.128 82.1377C125.128 82.307 125.157 82.4535 125.216 82.5771C125.274 82.7008 125.346 82.8245 125.431 82.9482C125.519 83.0719 125.613 83.1973 125.714 83.3242C125.815 83.4512 125.908 83.5846 125.992 83.7246C126.197 84.0534 126.3 84.3431 126.3 84.5938C126.3 84.8411 126.248 85.0495 126.144 85.2188C126.039 85.3848 125.904 85.528 125.738 85.6484C125.383 85.9121 124.986 86.0439 124.547 86.0439C124.127 86.0439 123.795 85.943 123.551 85.7412C123.349 85.5719 123.248 85.3717 123.248 85.1406Z" fill="#9E9E9E"/>
<path d="M73 82.5C73 82.2238 73.2239 82 73.5 82H94.5C94.7761 82 95 82.2238 95 82.5C95 82.7761 94.7761 83 94.5 83H73.5C73.2239 83 73 82.7761 73 82.5Z" fill="#9E9E9E"/>
<path d="M83.4709 71.8594C83.4709 70.7168 83.7968 68.9648 84.4485 66.6035C82.4088 66.6543 80.8472 66.7135 79.7639 66.7812C79.4338 67.3822 79.1334 67.9535 78.8625 68.4951L78.0754 70.0566C77.0344 72.1048 76.0992 73.4548 75.2698 74.1064C74.635 74.6143 73.9621 74.8682 73.2512 74.8682C72.7095 74.8682 72.2991 74.6904 72.0198 74.335C71.9182 74.1911 71.8589 74.0557 71.842 73.9287C71.8251 73.7933 71.8547 73.7044 71.9309 73.6621C72.9042 73.2982 73.6955 72.7438 74.3049 71.999C74.8381 71.3304 75.3713 70.5137 75.9045 69.5488L77.3391 66.9844L76.5393 67.0986C76.0315 67.1917 75.7776 67.1113 75.7776 66.8574C75.7776 66.6035 75.9299 66.3623 76.2346 66.1338C76.7678 65.736 77.2883 65.4736 77.7961 65.3467L78.342 65.2197C79.73 62.9261 80.788 61.3223 81.5158 60.4082C82.2522 59.4941 82.9208 58.7324 83.5217 58.123C84.1311 57.5137 84.7701 56.9762 85.4387 56.5107C86.9029 55.5036 88.3459 55 89.7678 55C90.1994 55 90.4914 55.0889 90.6438 55.2666C90.8977 55.5459 90.9781 55.8464 90.885 56.168C90.7919 56.4811 90.6395 56.9339 90.428 57.5264C89.0738 61.2165 88.2486 63.5016 87.9524 64.3818C88.0878 64.3734 88.2105 64.3691 88.3205 64.3691H88.5998C89.5477 64.3691 90.0556 64.4622 90.1233 64.6484C90.1402 64.7077 90.1487 64.8177 90.1487 64.9785C90.1487 65.1309 90.0979 65.3086 89.9963 65.5117C89.9032 65.7148 89.7466 65.8883 89.5266 66.0322C89.078 66.3369 88.3248 66.5146 87.2668 66.5654C86.6913 68.5544 86.3612 69.9297 86.2766 70.6914C86.2004 71.4531 86.2258 71.9694 86.3528 72.2402C86.4882 72.5026 86.6744 72.6338 86.9114 72.6338C87.1568 72.6338 87.3557 72.6126 87.508 72.5703C87.6604 72.5195 87.7958 72.4645 87.9143 72.4053L88.2444 72.2529C88.329 72.2021 88.4136 72.1768 88.4983 72.1768C88.5914 72.1768 88.6675 72.236 88.7268 72.3545C88.786 72.4645 88.8157 72.6126 88.8157 72.7988C88.8157 72.985 88.7352 73.2093 88.5744 73.4717C88.4221 73.7256 88.219 73.9541 87.9651 74.1572C87.3726 74.6312 86.704 74.8682 85.9592 74.8682C84.8166 74.8682 84.0549 74.3604 83.6741 73.3447C83.5386 72.9893 83.4709 72.6719 83.4709 72.3926V71.8594ZM80.9319 64.7754C82.4384 64.5807 83.8349 64.4665 85.1213 64.4326C85.3583 63.7048 85.6122 62.9854 85.883 62.2744L86.6701 60.2432C86.941 59.5999 87.2076 58.9906 87.4699 58.415L88.2063 56.8535C86.4459 57.3105 84.7066 58.8298 82.9885 61.4111C82.6246 61.9528 82.2691 62.5114 81.9221 63.0869L80.9319 64.7754Z" fill="white"/>
<path d="M102.78 72.2402C102.975 72.2402 103.072 72.3376 103.072 72.5322C103.072 73.2686 102.709 73.8864 101.981 74.3857C101.49 74.7074 100.914 74.8682 100.254 74.8682C99.7125 74.8682 99.2977 74.7412 99.01 74.4873C98.4937 74.0303 98.2356 73.4717 98.2356 72.8115C98.2356 71.9736 98.5868 70.6914 99.2893 68.9648C97.9859 70.7253 97.0718 71.8975 96.5471 72.4814C96.0224 73.057 95.5653 73.5055 95.176 73.8271C94.3296 74.5212 93.5637 74.8682 92.8782 74.8682C91.8287 74.8682 91.1304 74.4154 90.7834 73.5098C90.6819 73.2305 90.6311 72.9131 90.6311 72.5576C90.6311 72.1937 90.6903 71.7917 90.8088 71.3516C90.9358 70.903 91.0966 70.4375 91.2912 69.9551C91.4859 69.4727 91.6975 68.9775 91.926 68.4697L92.6115 66.9463C93.4918 64.9912 93.8176 63.8317 93.5891 63.4678C93.4875 63.307 93.2971 63.1462 93.0178 62.9854C92.9162 62.9261 92.8655 62.8245 92.8655 62.6807C92.8655 62.5283 92.9247 62.3844 93.0432 62.249C93.1701 62.1136 93.331 61.9951 93.5256 61.8936C93.9403 61.6989 94.355 61.6016 94.7698 61.6016C95.1845 61.6016 95.4976 61.6481 95.7092 61.7412C95.9293 61.8258 96.107 61.9359 96.2424 62.0713C96.5217 62.3506 96.6614 62.6595 96.6614 62.998C96.6614 63.3366 96.6063 63.7174 96.4963 64.1406C96.3863 64.5553 96.2424 65.0081 96.0647 65.499C95.8869 65.9899 95.6923 66.4977 95.4807 67.0225C94.8967 68.3936 94.5032 69.2992 94.3 69.7393L93.8303 70.7168C93.5679 71.3008 93.4367 71.7113 93.4367 71.9482C93.4367 72.1852 93.4748 72.3545 93.551 72.4561C93.6272 72.5492 93.7626 72.5957 93.9573 72.5957C94.1604 72.5957 94.3931 72.5026 94.6555 72.3164C94.9179 72.1302 95.2056 71.8805 95.5188 71.5674C95.8319 71.2542 96.1578 70.8945 96.4963 70.4883C96.8349 70.0736 97.1649 69.6462 97.4865 69.2061C98.1213 68.3428 98.5868 67.6488 98.883 67.124C100.677 63.9502 101.634 62.2913 101.752 62.1475C102.023 61.7835 102.298 61.6016 102.577 61.6016C102.865 61.6016 103.115 61.6354 103.326 61.7031C103.538 61.7624 103.72 61.8512 103.872 61.9697C104.228 62.2321 104.342 62.4945 104.215 62.7568C102.15 67.0648 101.037 69.7731 100.876 70.8818C100.834 71.2627 100.813 71.5251 100.813 71.6689C100.813 72.3122 101.007 72.6338 101.397 72.6338C101.761 72.6338 102.061 72.5703 102.298 72.4434C102.535 72.3079 102.696 72.2402 102.78 72.2402Z" fill="white"/>
<path d="M105.383 74.4365C105.214 74.3096 105.078 74.1699 104.977 74.0176C104.875 73.8568 104.82 73.7214 104.812 73.6113C104.803 73.4928 104.824 73.3532 104.875 73.1924C104.934 73.0231 105.011 72.82 105.104 72.583C106.83 68.3343 107.694 65.4821 107.694 64.0264C107.668 63.6201 107.529 63.3324 107.275 63.1631L107.021 62.9854C106.945 62.9261 106.902 62.8245 106.894 62.6807C106.894 62.5283 106.949 62.3844 107.059 62.249C107.169 62.1136 107.313 61.9951 107.49 61.8936C107.854 61.6989 108.227 61.6016 108.608 61.6016C108.997 61.6016 109.297 61.6439 109.509 61.7285C109.729 61.8132 109.915 61.9274 110.068 62.0713C110.389 62.376 110.55 62.6976 110.55 63.0361C110.558 63.3747 110.52 63.7174 110.436 64.0645C110.36 64.4115 110.266 64.7542 110.156 65.0928C110.046 65.4229 109.936 65.7402 109.826 66.0449C109.716 66.3411 109.644 66.5612 109.611 66.7051C109.543 67.0013 109.517 67.1875 109.534 67.2637C109.738 67.0859 109.86 66.9124 109.903 66.7432L110.398 65.8037C111.498 63.8232 112.573 62.5114 113.622 61.8682C113.927 61.6904 114.291 61.6016 114.714 61.6016C115.146 61.6016 115.493 61.7539 115.755 62.0586C116.017 62.3548 116.153 62.6849 116.161 63.0488C116.178 63.4128 116.153 63.7174 116.085 63.9629C116.026 64.1999 115.933 64.4242 115.806 64.6357C115.527 65.1097 115.188 65.3467 114.79 65.3467C114.68 65.3467 114.579 65.3086 114.486 65.2324L114.206 64.9912C113.927 64.7458 113.656 64.623 113.394 64.623C113.14 64.623 112.827 64.7923 112.454 65.1309C112.09 65.4694 111.71 65.9053 111.312 66.4385C109.975 68.2074 108.883 70.1878 108.036 72.3799L107.478 73.8525C107.334 74.2165 107.207 74.4788 107.097 74.6396C106.987 74.792 106.822 74.8682 106.602 74.8682C106.39 74.8682 106.174 74.8258 105.954 74.7412C105.743 74.665 105.552 74.5635 105.383 74.4365Z" fill="white"/>
<path d="M117.126 73.8779C116.771 73.5394 116.491 73.112 116.288 72.5957C116.085 72.071 115.979 71.4531 115.971 70.7422C115.962 70.0312 116.047 69.3118 116.225 68.584C116.411 67.8561 116.669 67.1536 116.999 66.4766C117.338 65.7995 117.74 65.1647 118.205 64.5723C118.679 63.9798 119.2 63.4635 119.767 63.0234C121.002 62.0755 122.285 61.6016 123.614 61.6016C125.357 61.6016 126.538 62.3675 127.155 63.8994C127.596 65.0081 127.621 66.3496 127.232 67.9238C126.876 69.3711 126.225 70.6999 125.277 71.9102C124.337 73.1204 123.228 73.9795 121.95 74.4873C121.307 74.7412 120.672 74.8682 120.046 74.8682C119.428 74.8682 118.874 74.7878 118.383 74.627C117.901 74.4661 117.482 74.2165 117.126 73.8779ZM119.551 67.7207C119.297 68.347 119.094 68.9902 118.942 69.6504C118.798 70.3105 118.73 70.9368 118.739 71.5293C118.747 72.1133 118.836 72.5745 119.005 72.9131C119.183 73.2432 119.466 73.4082 119.856 73.4082C120.245 73.4082 120.626 73.277 120.998 73.0146C121.379 72.7438 121.747 72.3883 122.103 71.9482C122.458 71.5081 122.793 71.0003 123.106 70.4248C123.419 69.8493 123.694 69.2484 123.931 68.6221C124.447 67.2594 124.697 66.0492 124.68 64.9912C124.68 64.0602 124.489 63.4678 124.109 63.2139C123.956 63.1123 123.74 63.0615 123.461 63.0615C123.19 63.0615 122.877 63.1885 122.522 63.4424C122.166 63.6878 121.811 64.0221 121.455 64.4453C121.1 64.8685 120.757 65.3636 120.427 65.9307C120.097 66.4977 119.805 67.0944 119.551 67.7207Z" fill="white"/>
<path d="M129.377 74.4365C129.208 74.3096 129.072 74.1699 128.971 74.0176C128.869 73.8568 128.814 73.7214 128.806 73.6113C128.797 73.4928 128.819 73.3532 128.869 73.1924C128.929 73.0231 129.005 72.82 129.098 72.583C130.824 68.3343 131.688 65.4821 131.688 64.0264C131.662 63.6201 131.523 63.3324 131.269 63.1631L131.015 62.9854C130.939 62.9261 130.896 62.8245 130.888 62.6807C130.888 62.5283 130.943 62.3844 131.053 62.249C131.163 62.1136 131.307 61.9951 131.485 61.8936C131.849 61.6989 132.221 61.6016 132.602 61.6016C132.991 61.6016 133.292 61.6439 133.503 61.7285C133.723 61.8132 133.909 61.9274 134.062 62.0713C134.383 62.376 134.544 62.6976 134.544 63.0361C134.553 63.3747 134.515 63.7174 134.43 64.0645C134.354 64.4115 134.261 64.7542 134.151 65.0928C134.041 65.4229 133.931 65.7402 133.821 66.0449C133.711 66.3411 133.639 66.5612 133.605 66.7051C133.537 67.0013 133.512 67.1875 133.529 67.2637C133.732 67.0859 133.854 66.9124 133.897 66.7432L134.392 65.8037C135.492 63.8232 136.567 62.5114 137.616 61.8682C137.921 61.6904 138.285 61.6016 138.708 61.6016C139.14 61.6016 139.487 61.7539 139.749 62.0586C140.012 62.3548 140.147 62.6849 140.155 63.0488C140.172 63.4128 140.147 63.7174 140.079 63.9629C140.02 64.1999 139.927 64.4242 139.8 64.6357C139.521 65.1097 139.182 65.3467 138.784 65.3467C138.674 65.3467 138.573 65.3086 138.48 65.2324L138.2 64.9912C137.921 64.7458 137.65 64.623 137.388 64.623C137.134 64.623 136.821 64.7923 136.448 65.1309C136.085 65.4694 135.704 65.9053 135.306 66.4385C133.969 68.2074 132.877 70.1878 132.03 72.3799L131.472 73.8525C131.328 74.2165 131.201 74.4788 131.091 74.6396C130.981 74.792 130.816 74.8682 130.596 74.8682C130.384 74.8682 130.169 74.8258 129.948 74.7412C129.737 74.665 129.546 74.5635 129.377 74.4365Z" fill="white"/>
<path d="M149.74 71.3643C149.74 72.1429 150.016 72.5322 150.566 72.5322C150.947 72.5322 151.26 72.473 151.505 72.3545C151.759 72.236 151.928 72.1768 152.013 72.1768C152.191 72.1768 152.28 72.2699 152.28 72.4561C152.28 73.1839 151.899 73.8102 151.137 74.335C150.333 74.8851 149.512 75.0205 148.674 74.7412C148.124 74.5465 147.718 74.1276 147.455 73.4844C147.328 73.1543 147.265 72.8538 147.265 72.583C147.265 72.1429 147.307 71.6774 147.392 71.1865C146.605 72.7946 145.627 73.9033 144.459 74.5127C143.994 74.7497 143.499 74.8682 142.974 74.8682C142.449 74.8682 141.992 74.7624 141.603 74.5508C141.222 74.3307 140.896 74.0303 140.625 73.6494C140.075 72.8538 139.825 71.8551 139.876 70.6533C139.927 69.1468 140.371 67.6699 141.209 66.2227C141.979 64.8685 142.953 63.764 144.129 62.9092C145.306 62.0374 146.406 61.6016 147.43 61.6016C148.454 61.6016 149.279 62.0713 149.905 63.0107C150.489 62.0713 151.006 61.6016 151.454 61.6016C151.937 61.6016 152.301 61.6904 152.546 61.8682C153.012 62.2067 153.177 62.5029 153.041 62.7568C150.917 67.1071 149.825 69.8154 149.766 70.8818C149.749 71.0342 149.74 71.195 149.74 71.3643ZM142.695 71.415C142.695 72.4307 143.02 72.9385 143.672 72.9385C144.171 72.9385 144.785 72.5153 145.513 71.6689C146.579 70.4248 147.523 68.749 148.344 66.6416C148.606 65.9814 148.826 65.3213 149.004 64.6611C148.97 64.0856 148.729 63.6624 148.28 63.3916C148.128 63.2985 147.9 63.252 147.595 63.252C147.299 63.252 146.947 63.362 146.541 63.582C146.143 63.8021 145.754 64.1025 145.373 64.4834C145.001 64.8643 144.65 65.3171 144.32 65.8418C143.998 66.3581 143.714 66.9209 143.469 67.5303C142.953 68.8337 142.695 70.1286 142.695 71.415Z" fill="white"/>
<path opacity="0.5" d="M27.412 50.9836L21.3611 88.939C25.4864 88.6023 31.369 87.7819 31.5549 86.6512L36.9054 51.3996L27.412 50.9836Z" fill="url(#paint0_linear)"/>
<path opacity="0.6" d="M31.5654 86.651C31.633 86.1538 30.598 85.5949 27.829 84.9872C27.1023 84.8277 26.7586 84.6385 26.7385 84.424L32.002 51.2954H36.9052L31.5654 86.651Z" fill="url(#paint1_linear)"/>
<path opacity="0.5" d="M26.747 84.3379L26.7374 84.3985C26.7379 84.3785 26.7411 84.3583 26.747 84.3379L37.2179 18.3314H71.5402L64.2633 74.2385C64.0158 76.8136 27.4298 81.98 26.747 84.3379Z" fill="url(#paint2_linear)"/>
<path opacity="0.5" d="M64.2648 74.2069C64.2465 73.2953 59.5603 72.7167 46.9202 72.7167C24.2753 72.7167 15.5992 71.0523 16.0141 68.3878L19.8512 48C24.8385 21.5 33 12.8558 72.7848 12.8558L64.2648 74.2069Z" fill="url(#paint3_linear)"/>
<path d="M64.2648 74.2069C64.2465 73.2953 59.5603 72.7167 46.9202 72.7167C24.2753 72.7167 15.5992 71.0523 16.0141 68.3878C15.4837 71.7936 30.9596 72.1233 44.6633 71.8596C58.367 71.5959 64.2396 72.9488 64.2648 74.2069Z" fill="url(#paint4_linear)"/>
<path d="M82.4943 47.1321C50 54.7629 17.1777 63.2717 16.031 68.3006L16.0145 68.3863C16.0189 68.3578 16.0244 68.3293 16.031 68.3006L20.4146 45.5638C25.0246 19.186 38.0899 12.0615 72.6358 12.0615H115.96L114.469 20.9313C112.243 35.0736 106.928 40.7473 82.4943 47.1321Z" fill="url(#paint5_linear)"/>
<path d="M82.4943 47.1319C51.4777 54.4157 20.1622 62.4995 16.3809 67.5932C16.2381 67.8556 16.1158 68.1199 16.0145 68.3861C16.0546 68.1308 16.1782 67.8663 16.3809 67.5932C19.609 61.664 33.3631 56.7088 54.7824 51.8845C68.539 48.786 102.798 43.9076 110.879 32.173C109.941 33.7303 108.791 35.144 107.362 36.4524C102.742 40.6814 95.2053 43.8104 82.4943 47.1319Z" fill="url(#paint6_linear)"/>
<defs>
<linearGradient id="paint0_linear" x1="24.178" y1="87.3792" x2="42.7725" y2="59.9722" gradientUnits="userSpaceOnUse">
<stop stop-color="#37FF8B"/>
<stop offset="0.589904" stop-color="#DB2763" stop-opacity="0.58"/>
<stop offset="1" stop-color="#DB2763" stop-opacity="0"/>
</linearGradient>
<linearGradient id="paint1_linear" x1="30.2285" y1="87.6909" x2="43.8684" y2="72.3334" gradientUnits="userSpaceOnUse">
<stop stop-color="#37FF8B" stop-opacity="0.49"/>
<stop offset="0.589904" stop-color="#DB2763" stop-opacity="0.29"/>
<stop offset="1" stop-color="#DB2763" stop-opacity="0"/>
</linearGradient>
<linearGradient id="paint2_linear" x1="45.3467" y1="66.7267" x2="57.9788" y2="23.3739" gradientUnits="userSpaceOnUse">
<stop stop-color="#37FF8B" stop-opacity="0.49"/>
<stop offset="0.589904" stop-color="#DB2763" stop-opacity="0.24"/>
<stop offset="1" stop-color="#DB2763" stop-opacity="0"/>
</linearGradient>
<linearGradient id="paint3_linear" x1="34.7144" y1="74.1725" x2="49.061" y2="28.8016" gradientUnits="userSpaceOnUse">
<stop stop-color="#37FF8B" stop-opacity="0.5"/>
<stop offset="0.589904" stop-color="#DB2763" stop-opacity="0.34"/>
<stop offset="1" stop-color="#DB2763" stop-opacity="0"/>
</linearGradient>
<linearGradient id="paint4_linear" x1="52.4676" y1="79.8365" x2="37.9005" y2="48.9654" gradientUnits="userSpaceOnUse">
<stop stop-color="#37FF8B" stop-opacity="0.5"/>
<stop offset="0.589904" stop-color="#DB2763" stop-opacity="0.34"/>
<stop offset="1" stop-color="#DB2763" stop-opacity="0"/>
</linearGradient>
<linearGradient id="paint5_linear" x1="40.8016" y1="59.2682" x2="44.5473" y2="1.84625" gradientUnits="userSpaceOnUse">
<stop offset="0.0898" stop-color="#37FF8B" stop-opacity="0.5"/>
<stop offset="0.630208" stop-color="#DB2763" stop-opacity="0.16"/>
<stop offset="1" stop-color="#DB2763" stop-opacity="0"/>
</linearGradient>
<linearGradient id="paint6_linear" x1="29.9808" y1="60.4547" x2="70.3102" y2="14.574" gradientUnits="userSpaceOnUse">
<stop stop-color="#37FF8B" stop-opacity="0.5"/>
<stop offset="0.627835" stop-color="#DB2763" stop-opacity="0.31"/>
<stop offset="1" stop-color="#DB2763" stop-opacity="0"/>
</linearGradient>
</defs>
</svg>
